<?xml version="1.0" encoding="utf-8"?>
<!-- Generator: Adobe Illustrator 23.0.1, SVG Export Plug-In . SVG Version: 6.00 Build 0)  -->
<svg version="1.1" id="图层_1" xmlns="http://www.w3.org/2000/svg" xmlns:xlink="http://www.w3.org/1999/xlink" x="0px" y="0px"
	 viewBox="0 0 1304 504" style="enable-background:new 0 0 1304 504;" xml:space="preserve">
<style type="text/css">
	.st0{fill:#ffffff;stroke:#999999;}
	.st1{fill:#fcfcfc;stroke:#999999;stroke-miterlimit:10;}
	.st2{fill:#000000;}
	.st3{font-family:'CiscoSansTT-Bold';}
	.st4{font-size:14px;}
	.st5{fill:#fcfcfc;stroke:#999999;stroke-width:0.991;stroke-miterlimit:10;}
	.st6{fill:#fcfcfc;stroke:#999999;stroke-miterlimit:10;}
	.st7{fill:#fcfcfc;stroke:#999999;stroke-width:0.8998;stroke-miterlimit:10;}
	.st8{fill:#fcfcfc;stroke:#999999;stroke-miterlimit:10;}
	.st9{fill:#fcfcfc;stroke:#999999;stroke-width:1.1082;stroke-miterlimit:10;}
	.st10{font-size:12px;}
	.st11{fill:#fcfcfc;stroke:#999999;stroke-miterlimit:10;}
	.st12{fill:#fcfcfc;stroke:#999999;stroke-width:0.9785;stroke-miterlimit:10;}
	.st13{fill:#fcfcfc;stroke:#999999;stroke-miterlimit:10;}
	.st14{fill:none;stroke:#000000;stroke-miterlimit:10;}
</style>
<polygon id="space_outline" class="st0" points="1304,1 1304,314 503.5,314 503.5,504.5 0,504.5 0,1 "/>
<g>
	<rect id="The_Cube" x="2" y="3" class="st1" width="139" height="117"/>
	<text transform="matrix(1 0 0 1 42.2857 59.5)" class="st2 st3 st4">The Cube</text>
</g>
<g>
	<rect id="CL1" x="2" y="122.74" class="st5" width="177" height="150.26"/>
	<text transform="matrix(1 0 0 1 42.2858 201.3646)" class="st2 st3 st4">Classroom 1</text>
</g>
<g>
	<rect id="Start_Now" x="188" y="3" class="st6" width="107" height="198"/>
	<text transform="matrix(1 0 0 1 207.6486 91.1075)" class="st2 st3 st4">Start Now</text>
</g>
<g id="CL3_1_">
	<rect id="CL3" x="324.83" y="3" class="st6" width="107" height="209"/>
	<text transform="matrix(1 0 0 1 335.6827 91.1077)" class="st2 st3 st4">Classroom 3</text>
</g>
<g id="CL2_1_">
	<rect id="CL2" x="461.67" y="3" class="st7" width="107" height="169.23"/>
	<text transform="matrix(1 0 0 1 472.516 91.1075)" class="st2 st3 st4">Classroom 2</text>
</g>
<g id="WS4_1_">
	<rect id="WS4" x="598.5" y="3" class="st8" width="107" height="99"/>
	<text transform="matrix(1 0 0 1 611.1835 55.9932)" class="st2 st3 st4">Workshop 4</text>
</g>
<g id="WS3">
	<rect id="ws3" x="598.5" y="107.5" class="st8" width="107" height="99"/>
	<text transform="matrix(1 0 0 1 611.1835 160.4932)" class="st2 st3 st4">Workshop 3</text>
</g>
<g id="Code_Infrastructure_1_">
	<rect id="Code_Infrastructure" x="768" y="59.5" class="st6" width="132" height="117.5"/>
	<text transform="matrix(1 0 0 1 815.8142 113.3433)"><tspan x="0" y="0" class="st2 st3 st4">Code</tspan><tspan x="-28.8" y="16.8" class="st2 st3 st4">Infrastructure</tspan></text>
</g>
<g id="Theatre">
	<polygon id="Theater" class="st8" points="1145.43,300.38 916.31,300.38 916.31,35.83 978.03,35.83 1145.43,205.5 	"/>
	<text transform="matrix(1 0 0 1 1002.8156 195.3929)" class="st2 st3 st4">Theater </text>
</g>
<g id="Security_Challenges_1_">
	<rect id="Security_Challenges" x="768" y="239.23" class="st9" width="79.83" height="73"/>
	<text transform="matrix(1 0 0 1 783.5309 271.522)"><tspan x="0" y="0" class="st2 st3 st10">Security</tspan><tspan x="-8.24" y="14.4" class="st2 st3 st10">Challenges</tspan></text>
</g>
<g id="aMazing_Race_1_">
	<rect id="aMazing_Race" x="591" y="228.23" class="st1" width="132" height="84"/>
	<text transform="matrix(1 0 0 1 607.9518 273.7216)" class="st2 st3 st4">aMazing Race </text>
</g>
<g id="Co-Creations_1_">
	<rect id="Co-Creations" x="393" y="252.75" class="st11" width="95.25" height="95.25"/>
	<text transform="matrix(1 0 0 1 400.9114 303.369)" class="st2 st3 st10">Co-Creations</text>
</g>
<g id="WS2_1_">
	
		<rect id="WS2" x="397.75" y="398.5" transform="matrix(-1.836970e-16 1 -1 -1.836970e-16 899.2499 -3.25)" class="st8" width="107" height="99"/>
	<text transform="matrix(1 0 0 1 410.4336 451.4933)" class="st2 st3 st4">Workshop 2</text>
</g>
<g id="WS1_1_">
	
		<rect id="WS1" x="293.25" y="398.5" transform="matrix(-1.836970e-16 1 -1 -1.836970e-16 794.7499 101.25)" class="st8" width="107" height="99"/>
	<text transform="matrix(1 0 0 1 305.9338 451.4933)" class="st2 st3 st4">Workshop 1</text>
</g>
<g id="Welcome_Desk_1_">
	<rect id="Welcome_Desk" x="210.46" y="295.03" class="st1" width="89.79" height="83.31"/>
	<text transform="matrix(1 0 0 1 223.2584 331.7793)"><tspan x="0" y="0" class="st2 st3 st4">Welcome</tspan><tspan x="14.81" y="16.8" class="st2 st3 st4">Desk</tspan></text>
</g>
<g id="Sandbox_1_">
	<polygon id="Sandbox" class="st11" points="197.03,379.3 133.71,442.62 63.57,372.49 93.14,342.91 127.99,377.76 161.74,344.01 	
		"/>
	<text transform="matrix(1 0 0 1 97.8017 396.6432)" class="st2 st3 st4">Sandbox</text>
</g>
<g id="Design_Thinking_1_">
	<polygon id="Design_Thinking" class="st12" points="133.71,442.62 104.14,472.19 73.6,502.5 2,502.5 2,402.06 34,402.06 
		63.57,372.49 	"/>
	<text transform="matrix(1 0 0 1 5.1126 437.4953)"><tspan x="0" y="0" class="st2 st3 st4">Design Thinking</tspan><tspan x="13.5" y="33.6" class="st2 st3 st4">Workshop 5</tspan></text>
</g>
<g id="Partner_Village_1_">
	<rect id="Partner_Village" x="1150.54" y="88.41" class="st13" width="151.46" height="223.81"/>
	<text transform="matrix(1 0 0 1 1201.1556 195.4148)"><tspan x="0" y="0" class="st2 st3 st4">DevNet</tspan><tspan x="-24.84" y="16.8" class="st2 st3 st4">Partner Village</tspan></text>
</g>
<g id="Exchange_1_">
	
		<rect id="Exchange" x="73.14" y="286.89" transform="matrix(0.7071 0.7071 -0.7071 0.7071 247.4876 24.0237)" class="st11" width="43.21" height="47.73"/>
	<text transform="matrix(1 0 0 1 124.2725 295.0283)" class="st2 st3 st4">Exchange</text>
	<g>
		<g>
			<polyline class="st14" points="99.77,310.76 157.23,310.76 157.23,300.38 			"/>
			<g>
				<polygon class="st2" points="100.79,314.25 94.74,310.76 100.79,307.27 				"/>
			</g>
		</g>
	</g>
</g>
<g id="NetDevOps_1_">
	<rect id="NetDevOps" x="768" y="199.73" class="st6" width="29" height="36.5"/>
	<text transform="matrix(1 0 0 1 806.3135 200.3213)" class="st2 st3 st4">NetDevOps</text>
	<g>
		<g>
			<polyline class="st14" points="787.52,217.19 844.98,217.19 844.98,206.81 			"/>
			<g>
				<polygon class="st2" points="788.54,220.68 782.5,217.19 788.54,213.7 				"/>
			</g>
		</g>
	</g>
</g>
</svg>
